<svg width="19" height="17" viewBox="0 0 19 17" fill="none" xmlns="http://www.w3.org/2000/svg">
<path d="M17.0644 5.78575L9.93938 1.53575C9.80927 1.45812 9.65639 1.41672 9.50001 1.41675C9.3439 1.41686 9.19131 1.45826 9.06142 1.53575L1.93642 5.78575C1.79511 5.87006 1.68784 5.9928 1.63047 6.13584C1.57311 6.27889 1.56868 6.43465 1.61784 6.58011C1.66701 6.72558 1.76716 6.85304 1.9035 6.94367C2.03985 7.0343 2.20515 7.0833 2.37501 7.08341H3.16667V14.8751C3.16667 15.0629 3.25008 15.2431 3.39855 15.3759C3.54701 15.5088 3.74838 15.5834 3.95834 15.5834H15.0417C15.2516 15.5834 15.453 15.5088 15.6015 15.3759C15.7499 15.2431 15.8333 15.0629 15.8333 14.8751V7.08341H16.625C16.795 7.0836 16.9605 7.03483 17.0971 6.94431C17.2337 6.85379 17.3342 6.72633 17.3835 6.58079C17.4329 6.43525 17.4286 6.27936 17.3713 6.13618C17.3139 5.99299 17.2066 5.87013 17.0652 5.78575H17.0644ZM14.25 14.1667H4.75001V5.80841L9.50001 2.97508L14.25 5.80841V14.1667Z" fill="white"/>
</svg>
