<svg width="21" height="21" viewBox="0 0 21 21" fill="none" xmlns="http://www.w3.org/2000/svg">
<g clip-path="url(#clip0_182_1094)">
<path d="M3.58337 12.0646C4.63741 13.2101 6.08923 13.9478 7.66534 14.1389C9.24144 14.3299 10.833 13.961 12.1402 13.1017L16.1886 17.495C16.3325 17.6458 16.532 17.7366 16.7441 17.7478C16.9563 17.759 17.1641 17.6897 17.3229 17.5549C17.4816 17.4201 17.5786 17.2305 17.5929 17.027C17.6072 16.8234 17.5377 16.6223 17.3993 16.4668L13.351 12.0735C14.4453 10.8815 15.0231 9.33123 14.9664 7.73872C14.9097 6.14621 14.2229 4.63145 13.0459 3.50337C11.869 2.37529 10.2906 1.71885 8.63263 1.66794C6.9747 1.61702 5.36212 2.17547 4.12375 3.22938C3.48397 3.77244 2.96247 4.4318 2.58905 5.16979C2.21562 5.90778 1.99759 6.70993 1.94741 7.53041C1.89722 8.3509 2.01587 9.17365 2.29658 9.95164C2.57728 10.7296 3.01454 11.4476 3.58337 12.0646ZM5.20007 4.39907C6.04654 3.6802 7.12775 3.26674 8.25949 3.22912C9.39122 3.19151 10.5035 3.53207 11.4067 4.19278C12.3099 4.85349 12.9483 5.79347 13.213 6.85258C13.4778 7.91168 13.3525 9.02438 12.8585 10.0011C12.3645 10.9778 11.5324 11.7581 10.504 12.209C9.47557 12.66 8.31443 12.7537 7.21841 12.4741C6.12239 12.1946 5.1593 11.5591 4.49323 10.676C3.82715 9.79289 3.49931 8.71675 3.56555 7.63094C3.60107 7.01381 3.76385 6.4102 4.04445 5.85514C4.32505 5.30008 4.71789 4.80462 5.20016 4.39751L5.20007 4.39907Z" fill="white"/>
</g>
<defs>
<clipPath id="clip0_182_1094">
<rect width="19.4464" height="18.6746" fill="white" transform="translate(1.36496 0.235596) rotate(3.5)"/>
</clipPath>
</defs>
</svg>
